<?xml version="1.0" encoding="utf-8"?>
<!-- Generator: Adobe Illustrator 21.0.2, SVG Export Plug-In . SVG Version: 6.00 Build 0)  -->
<svg version="1.1" baseProfile="tiny" id="Layer_1" xmlns="http://www.w3.org/2000/svg" xmlns:xlink="http://www.w3.org/1999/xlink"
	 x="0px" y="0px" viewBox="0 0 686 130" overflow="scroll" xml:space="preserve">
<g>
	<path fill="#FFF" d="M248.4,33.8c9.1,0,16.4,2.9,21.9,8.8c5.5,5.9,8.3,13.8,8.3,23.7v49.6h-17.3V67.4c0-5.5-1.4-9.8-4.2-12.9
		c-2.8-3-6.6-4.6-11.4-4.6c-5.3,0-9.6,1.8-12.7,5.3c-3.1,3.5-4.7,8.8-4.7,15.8v44.8h-17.3V67.4c0-5.5-1.3-9.8-3.9-12.9
		c-2.6-3-6.3-4.6-11.1-4.6c-5.2,0-9.5,1.8-12.8,5.4c-3.3,3.6-5,8.8-5,15.8v44.8H161v-80h17.3v9.6c5.1-7.8,12.7-11.7,22.9-11.7
		c10.2,0,17.8,4.2,22.7,12.6C229.2,38.1,237.4,33.8,248.4,33.8z"/>
	<path fill="#FFF" d="M360.5,35.9h17.3v80h-17.3v-11.5c-6.5,9.1-15.8,13.6-28,13.6c-11,0-20.4-4.1-28.2-12.2
		c-7.8-8.2-11.7-18.1-11.7-29.8c0-11.8,3.9-21.8,11.7-29.9c7.8-8.1,17.2-12.2,28.2-12.2c12.2,0,21.5,4.5,28,13.4V35.9z M317.2,94.2
		c4.8,4.9,10.8,7.3,18.1,7.3c7.3,0,13.3-2.4,18.1-7.3c4.8-4.9,7.2-11,7.2-18.3s-2.4-13.5-7.2-18.3c-4.8-4.9-10.8-7.3-18.1-7.3
		c-7.3,0-13.3,2.4-18.1,7.3c-4.8,4.9-7.2,11-7.2,18.3S312.4,89.4,317.2,94.2z"/>
	<path fill="#FFF" d="M468.7,115.9H448L415.2,79v36.9H398V3.9h17.3v67.5l31-35.5h21.1l-35.2,39.2L468.7,115.9z"/>
	<path fill="#FFF" d="M487.6,83.3c1.3,6.1,4.2,10.7,8.8,14c4.6,3.3,10.2,4.9,16.8,4.9c9.2,0,16.1-3.3,20.6-9.9l14.2,8.3
		c-7.9,11.6-19.6,17.4-35,17.4c-13,0-23.5-4-31.5-11.9c-8-7.9-12-18-12-30.2c0-11.9,3.9-21.9,11.8-30c7.9-8.1,18-12.1,30.4-12.1
		c11.7,0,21.4,4.1,28.9,12.3c7.5,8.2,11.3,18.2,11.3,29.9c0,1.8-0.2,4.2-0.6,7.2H487.6z M487.4,69.2h47c-1.2-6.5-3.9-11.4-8.1-14.7
		c-4.2-3.3-9.1-5-14.8-5c-6.4,0-11.7,1.8-16,5.3C491.3,58.3,488.6,63.1,487.4,69.2z"/>
	<path fill="#FFF" d="M584.4,49.4c4.4-9.9,12.6-14.9,24.6-14.9v18.7c-6.6-0.4-12.4,1.1-17.3,4.7c-4.9,3.6-7.4,9.5-7.4,17.7v40.3
		h-17.3v-80h17.3V49.4z"/>
	<path fill="#FFF" d="M634.4,57.9c0,2.6,1.5,4.7,4.4,6.2c3,1.5,6.5,2.9,10.6,4.2c4.1,1.3,8.4,2.6,12.7,3.9s8,3.8,10.9,7.4
		c2.9,3.6,4.4,8.2,4.4,13.7c0,7.7-3,13.7-8.9,18.1c-5.9,4.4-13.4,6.6-22.3,6.6c-7.9,0-14.7-1.7-20.3-5c-5.7-3.3-9.8-7.9-12.3-13.8
		l14.9-8.6c2.8,7.7,8.7,11.5,17.8,11.5c9.1,0,13.6-3,13.6-9c0-2.6-1.5-4.6-4.4-6.2c-2.9-1.6-6.5-3-10.6-4.3s-8.4-2.6-12.7-3.9
		c-4.3-1.3-8-3.7-10.9-7.2c-2.9-3.5-4.4-7.9-4.4-13.2c0-7.4,2.8-13.3,8.4-17.8c5.6-4.5,12.6-6.7,20.9-6.7c6.6,0,12.5,1.5,17.7,4.4
		c5.2,2.9,9.1,7,11.9,12.2l-14.6,8.2c-2.8-6.1-7.8-9.1-15-9.1c-3.3,0-6.1,0.7-8.3,2.1C635.6,53.1,634.4,55.2,634.4,57.9z"/>
</g>
<g>
	<g>
		<path fill="#FFF" d="M34,121.5c-4.4,0-8.6-1.7-11.7-4.8c-3.1-3.1-4.8-7.3-4.8-11.7c0-4.4,1.7-8.6,4.8-11.7L41.5,74
			c1.1-1.1,3.1-1.1,4.2,0c0.7,0.7,2.2,0.7,3,0c0.4-0.4,0.6-0.9,0.6-1.5c0-0.6-0.2-1.1-0.6-1.5c-0.6-0.6-0.9-1.3-0.9-2.1
			s0.3-1.6,0.9-2.1l4.8-4.8c1.2-1.2,3.1-1.2,4.2,0L77,81.2c0.6,0.6,0.9,1.3,0.9,2.1c0,0.8-0.3,1.6-0.9,2.1l-4.8,4.8
			c-1.2,1.2-3.1,1.2-4.2,0c-0.7-0.7-2.2-0.7-3,0c-0.7,0.7-0.7,2.2,0,3c0.6,0.6,0.9,1.3,0.9,2.1c0,0.8-0.3,1.6-0.9,2.1l-19.2,19.2
			C42.6,119.7,38.5,121.5,34,121.5z M44.1,79.9L26.5,97.4c-2,2-3.1,4.6-3.1,7.5c0,2.8,1.1,5.5,3.1,7.5c2,2,4.6,3.1,7.5,3.1
			c2.8,0,5.5-1.1,7.5-3.1L59,94.9c-1.2-3-0.7-6.5,1.7-8.9c2.4-2.4,6-2.9,8.9-1.7l1-1l-15-15l-1,1c0.4,1,0.6,2.1,0.6,3.2
			c0,2.2-0.8,4.2-2.3,5.7c-1.5,1.5-3.6,2.3-5.7,2.3C46.1,80.5,45,80.3,44.1,79.9z"/>
	</g>
	<g>
		<path fill="#FFF" d="M34,107.9c-0.8,0-1.5-0.3-2.1-0.9c-0.6-0.6-0.9-1.4-0.9-2.1s0.3-1.5,0.9-2.1L48.7,86
			c1.2-1.2,3.1-1.2,4.2,0c0.6,0.6,0.9,1.4,0.9,2.1s-0.3,1.5-0.9,2.1L36.1,107C35.6,107.6,34.8,107.9,34,107.9z"/>
	</g>
	<g>
		<path fill="#FFF" d="M67.6,69.2c-0.8,0-1.6-0.3-2.1-0.9L48,50.8c-7.4,1.4-15.4-1-20.9-6.5c-7.1-6.8-9-17.5-4.7-26.7
			c0.4-0.9,1.2-1.5,2.2-1.7c1-0.2,1.9,0.1,2.6,0.8l13.7,13.7c1.5,1.5,3.9,1.5,5.4,0c1.5-1.5,1.5-3.9,0-5.4L32.6,11.4
			c-0.7-0.7-1-1.7-0.8-2.6c0.2-1,0.8-1.8,1.7-2.2c9-4.2,19.7-2.3,26.7,4.7c5.5,5.5,7.9,13.5,6.5,20.9l17.5,17.5
			c0.6,0.6,0.9,1.3,0.9,2.1c0,0.8-0.3,1.6-0.9,2.1L69.8,68.3C69.2,68.9,68.4,69.2,67.6,69.2z M48.9,44.5c0.8,0,1.6,0.3,2.1,0.9
			L67.6,62l10.2-10.2L61.2,35.2c-0.8-0.8-1.1-1.9-0.8-2.9c1.7-5.8-0.1-12.4-4.5-16.7c-4.1-4.1-10-5.9-15.6-4.9l10.2,10.2
			c3.8,3.8,3.8,10,0,13.8c-3.8,3.8-10,3.8-13.8,0L26.5,24.5c-1.1,5.7,0.7,11.5,4.8,15.6c4.4,4.4,11,6.2,16.8,4.6
			C48.4,44.5,48.6,44.5,48.9,44.5z"/>
	</g>
	<g>
		<path fill="#FFF" d="M111.3,118.7c-6.1,0-12.2-2.4-16.7-6.9c-5.5-5.5-7.9-13.5-6.5-20.9L70.6,73.4c-0.6-0.6-0.9-1.3-0.9-2.1
			c0-0.8,0.3-1.6,0.9-2.1L85,54.7c1.1-1.1,3.1-1.1,4.2,0l17.5,17.5c7.6-1.5,15.5,0.9,20.9,6.5c7.1,6.8,9,17.6,4.7,26.7
			c-0.4,0.9-1.2,1.5-2.2,1.7c-1,0.2-1.9-0.1-2.6-0.8l-13.7-13.7c-1.5-1.5-3.9-1.5-5.4,0c-1.5,1.5-1.5,3.9,0,5.4l13.7,13.7
			c0.7,0.7,1,1.7,0.8,2.6c-0.2,1-0.8,1.8-1.7,2.2C118.1,118,114.7,118.7,111.3,118.7z M76.9,71.3l16.6,16.6c0.8,0.8,1.1,1.9,0.8,2.9
			c-1.7,5.8,0.1,12.4,4.5,16.7c4.1,4.1,10,5.9,15.6,4.9l-10.2-10.2c-3.8-3.8-3.8-10,0-13.8c3.8-3.8,10-3.8,13.8,0l10.2,10.2
			c1.1-5.7-0.7-11.5-4.8-15.6c0,0-0.1-0.1-0.1-0.1c-4.3-4.5-10.7-6.2-16.7-4.5c-1,0.3-2.2,0-2.9-0.8L87.1,61.1L76.9,71.3z"/>
	</g>
	<g>
		<path fill="#FFF" d="M67.9,78.8c-0.7,0-1.5-0.3-2.1-0.8L61,73.4c-0.6-0.6-0.9-1.4-0.9-2.2c0-0.7,0.3-1.5,0.8-2.1
			c1.1-1.2,3-1.3,4.2-0.1l4.8,4.6c0.6,0.6,0.9,1.4,0.9,2.2c0,0.7-0.3,1.5-0.8,2.1C69.5,78.5,68.7,78.8,67.9,78.8z"/>
	</g>
	<g>
		<path fill="#FFF" d="M67.6,79.1c-0.8,0-1.5-0.3-2.1-0.9l-4.8-4.8c-1.2-1.2-1.2-3.1,0-4.2l40.6-40.6l2.2-6.5
			c0.1-0.4,0.4-0.8,0.7-1.2l9.6-9.6c1.1-1.1,3.1-1.1,4.2,0l9.6,9.6c0.6,0.6,0.9,1.3,0.9,2.1c0,0.8-0.3,1.6-0.9,2.1l-9.6,9.6
			c-0.3,0.3-0.7,0.6-1.2,0.7l-6.5,2.2L69.8,78.2C69.2,78.8,68.4,79.1,67.6,79.1z M67.1,71.3l0.6,0.6l38.9-38.9
			c0.3-0.3,0.7-0.6,1.2-0.7l6.5-2.2l7-7l-5.4-5.4l-7,7l-2.2,6.5c-0.1,0.4-0.4,0.8-0.7,1.2L67.1,71.3z"/>
	</g>
</g>
</svg>
