<svg id="icons" enable-background="new 0 0 64 64" height="512" viewBox="0 0 64 64" width="512" xmlns="http://www.w3.org/2000/svg"><path d="m36.28 16h-8.55-2.73l-9 9.01h11.13 11.87l9-9.01z" fill="#d7e9ff"/><path d="m39 25.01v11.86 11.13l9-9v-2.73-8.55-11.72z" fill="#94c1ff"/><path d="m27.13 25.01h-11.13v2.71 8.57 11.71h11.71 8.57 2.72v-11.13-11.86z" fill="#fff"/><g fill="#116fff"><path d="m38.998 49.005h-22.996c-.553 0-1-.447-1-1v-22.996c0-.553.447-1 1-1h22.996c.553 0 1 .447 1 1v22.996c0 .553-.447 1-1 1zm-21.996-2h20.996v-20.996h-20.996z"/><path d="m38.998 26.009c-.256 0-.512-.098-.707-.292-.391-.391-.391-1.023-.001-1.415l9.002-9.014c.391-.391 1.024-.39 1.415-.001.391.391.391 1.023.001 1.415l-9.002 9.014c-.195.195-.452.293-.708.293z"/><path d="m15.998 26.009c-.256 0-.512-.098-.707-.292-.391-.391-.391-1.023-.001-1.415l9.002-9.014c.391-.391 1.024-.39 1.415-.001.391.391.391 1.023.001 1.415l-9.002 9.014c-.195.195-.452.293-.708.293z"/><path d="m48 40.001c-.553 0-1-.447-1-1v-23.006c0-.553.447-1 1-1s1 .447 1 1v23.006c0 .553-.447 1-1 1z"/><path d="m48 16.995h-23c-.553 0-1-.447-1-1s.447-1 1-1h23c.553 0 1 .447 1 1s-.447 1-1 1z"/><path d="m38.998 49.005c-.256 0-.512-.098-.707-.293-.391-.391-.391-1.023 0-1.414l9.004-9.004c.391-.391 1.023-.391 1.414 0s.391 1.023 0 1.414l-9.004 9.004c-.195.195-.451.293-.707.293z"/><path d="m36.282 16.995c-.509 0-.944-.387-.994-.903-1.059-10.86-2.805-13.893-3.333-14.099-.552 0-.978-.444-.978-.996.001-.553.47-.997 1.023-.997.922 0 3.729 0 5.278 15.898.054.55-.349 1.038-.898 1.092-.032.003-.066.005-.098.005z"/><path d="m32 64c-5.932 0-6-30.693-6-32 0-12.173 1.113-23.025 2.904-28.32.177-.523.744-.805 1.268-.627.523.177.804.744.627 1.268-1.7 5.026-2.799 15.89-2.799 27.679 0 18.93 2.593 29.44 4.045 30.007.438-.206 2.185-3.237 3.243-14.098.053-.549.558-.952 1.092-.898.55.054.952.542.898 1.092-1.549 15.897-4.356 15.897-5.278 15.897z"/><path d="m32 38c-1.307 0-32-.068-32-6 0-.923 0-3.73 15.903-5.278.565-.052 1.039.349 1.092.898.054.55-.349 1.038-.898 1.092-10.865 1.058-13.898 2.805-14.104 3.333.567 1.362 11.077 3.955 30.007 3.955 11.792 0 22.656-1.099 27.68-2.799.521-.177 1.09.104 1.268.627.177.522-.104 1.091-.627 1.268-5.293 1.791-16.144 2.904-28.321 2.904z"/><path d="m63 33c-.553 0-1-.447-1-1-.199-.483-3.233-2.23-14.098-3.288-.55-.054-.952-.542-.898-1.092.053-.55.531-.951 1.092-.898 15.904 1.548 15.904 4.355 15.904 5.278 0 .553-.447 1-1 1z"/><path d="m57.999 38c-.198 0-.398-.059-.573-.182-.452-.316-.562-.94-.244-1.393l2-2.853c.316-.451.94-.563 1.393-.244.452.316.562.94.244 1.393l-2 2.853c-.195.278-.505.426-.82.426z"/><path d="m60 35.147c-.119 0-.239-.021-.357-.066l-3-1.147c-.516-.197-.773-.775-.576-1.291.197-.517.773-.773 1.291-.576l3 1.147c.516.197.773.775.576 1.291-.153.398-.532.642-.934.642z"/><path d="m27.001 7c-.315 0-.625-.148-.819-.426-.317-.452-.208-1.076.244-1.393l2.853-2c.453-.319 1.076-.207 1.393.244.317.452.208 1.076-.244 1.393l-2.853 2c-.176.123-.376.182-.574.182z"/><path d="m31 8c-.402 0-.781-.244-.934-.643l-1.147-3c-.197-.516.061-1.094.576-1.291.514-.195 1.094.06 1.291.576l1.147 3c.197.516-.061 1.094-.576 1.291-.117.046-.238.067-.357.067z"/></g></svg>