<?xml version="1.0" encoding="iso-8859-1"?>
<!-- Generator: Adobe Illustrator 19.0.0, SVG Export Plug-In . SVG Version: 6.00 Build 0)  -->
<svg version="1.1" id="Capa_1" xmlns="http://www.w3.org/2000/svg" xmlns:xlink="http://www.w3.org/1999/xlink" x="0px" y="0px"
	 viewBox="0 0 512 512" style="enable-background:new 0 0 512 512;" xml:space="preserve">
<g>
	<g>
		<path d="M467,0H45C20.187,0,0,20.187,0,45v320c0,24.813,20.187,45,45,45h119.776l21.176,72H99v30h314v-30h-86.953l21.176-72H467
			c24.813,0,45-20.187,45-45V45C512,20.187,491.813,0,467,0z M294.776,482h-77.553l-21.176-72h119.905L294.776,482z M482,365
			c0,8.271-6.729,15-15,15H45c-8.271,0-15-6.729-15-15V45c0-8.271,6.729-15,15-15h422c8.271,0,15,6.729,15,15V365z"/>
	</g>
</g>
<g>
	<g>
		<path d="M60,60v290h392V60H60z M422,320H90V90h332V320z"/>
	</g>
</g>
<g>
	<g>
		<path d="M324,120c-38.767,0-68,19.346-68,45v80c0,25.654,29.233,45,68,45c38.767,0,68-19.346,68-45v-80
			C392,139.346,362.767,120,324,120z M362,245c0,4.353-13.316,15-38,15c-24.684,0-38-10.647-38-15v-42.244
			c10.715,4.607,23.705,7.244,38,7.244c14.295,0,27.285-2.637,38-7.244V245z M324,180c-24.684,0-38-10.647-38-15
			c0-4.353,13.316-15,38-15c24.684,0,38,10.647,38,15C362,169.353,348.684,180,324,180z"/>
	</g>
</g>
<g>
	<g>
		<polygon points="171.213,260 201.606,229.606 180.394,208.394 150,238.787 150,185 120,185 120,290 225,290 225,260 		"/>
	</g>
</g>
<g>
	<g>
		<circle cx="135" cy="140" r="15"/>
	</g>
</g>
<g>
</g>
<g>
</g>
<g>
</g>
<g>
</g>
<g>
</g>
<g>
</g>
<g>
</g>
<g>
</g>
<g>
</g>
<g>
</g>
<g>
</g>
<g>
</g>
<g>
</g>
<g>
</g>
<g>
</g>
</svg>
