<svg height="300px" width="300px" fill="#445BFC" xmlns="http://www.w3.org/2000/svg" xmlns:xlink="http://www.w3.org/1999/xlink" version="1.1" x="0px" y="0px" viewBox="0 0 100 100" enable-background="new 0 0 100 100" xml:space="preserve"><path d="M81.22,38.174L64.65,28.608c-0.279-7.586-11.827-20.73-13.159-22.221c-0.758-0.851-2.225-0.85-2.983,0  C47.177,7.878,35.631,21.021,35.35,28.607l-16.57,9.567c-0.619,0.357-1,1.018-1,1.732v34.897c0,0.715,0.381,1.375,1,1.732L49,93.982  c0.31,0.178,0.655,0.268,1,0.268s0.69-0.09,1-0.268l30.22-17.447c0.619-0.357,1-1.018,1-1.732V39.906  C82.22,39.191,81.839,38.531,81.22,38.174z M50,55.043L23.78,39.906l12.129-7.002c1.751,6.138,7.398,10.65,14.091,10.65  s12.34-4.511,14.092-10.649l12.128,7.002L50,55.043z M50,10.775c4.632,5.502,10.664,14.032,10.664,18.114  c0,5.88-4.784,10.664-10.664,10.664S39.337,34.77,39.337,28.889C39.337,24.812,45.368,16.28,50,10.775z M21.78,43.37L48,58.508  v30.277L21.78,73.648V43.37z M52,88.785V58.508L78.22,43.37v30.279L52,88.785z"/></svg>