<svg height="300px" width="300px" fill="#000000" xmlns="http://www.w3.org/2000/svg" viewBox="0 0 64 64" x="0px" y="0px"><title>calendar, user interface, app, plan, schedule</title><g><path d="M52,12H43V10a2,2,0,0,0-4,0v2H25V10a2,2,0,0,0-4,0v2H12a8.0092,8.0092,0,0,0-8,8V52a8.0092,8.0092,0,0,0,8,8H52a8.0092,8.0092,0,0,0,8-8V20A8.0092,8.0092,0,0,0,52,12ZM12,16h9v2a2,2,0,0,0,4,0V16H39v2a2,2,0,0,0,4,0V16h9a4.0045,4.0045,0,0,1,4,4v4H8V20A4.0045,4.0045,0,0,1,12,16ZM52,56H12a4.0045,4.0045,0,0,1-4-4V28H56V52A4.0045,4.0045,0,0,1,52,56Z"/><path d="M18,32H16a2,2,0,0,0,0,4h2a2,2,0,0,0,0-4Z"/><path d="M28,32H26a2,2,0,0,0,0,4h2a2,2,0,0,0,0-4Z"/><path d="M48,32H46a2,2,0,0,0,0,4h2a2,2,0,0,0,0-4Z"/><path d="M38,32H36a2,2,0,0,0,0,4h2a2,2,0,0,0,0-4Z"/><path d="M18,48H16a2,2,0,0,0,0,4h2a2,2,0,0,0,0-4Z"/><path d="M28,48H26a2,2,0,0,0,0,4h2a2,2,0,0,0,0-4Z"/><path d="M48,48H46a2,2,0,0,0,0,4h2a2,2,0,0,0,0-4Z"/><path d="M38,48H36a2,2,0,0,0,0,4h2a2,2,0,0,0,0-4Z"/><path d="M18,40H16a2,2,0,0,0,0,4h2a2,2,0,0,0,0-4Z"/><path d="M28,40H26a2,2,0,0,0,0,4h2a2,2,0,0,0,0-4Z"/><path d="M48,40H46a2,2,0,0,0,0,4h2a2,2,0,0,0,0-4Z"/><path d="M38,40H36a2,2,0,0,0,0,4h2a2,2,0,0,0,0-4Z"/></g></svg>