<svg height="300px" width="300px" fill="#000000" xmlns="http://www.w3.org/2000/svg" xmlns:xlink="http://www.w3.org/1999/xlink" xml:space="preserve" version="1.1" style="shape-rendering:geometricPrecision;text-rendering:geometricPrecision;image-rendering:optimizeQuality;" viewBox="0 0 258 168" x="0px" y="0px" fill-rule="evenodd" clip-rule="evenodd"><defs><style type="text/css">

    .fil0 {fill:#9295A6;fill-rule:nonzero}

  </style></defs><g><path class="fil0" d="M258 15l0 138c0,8 -6,15 -15,15l-228 0c-8,0 -15,-7 -15,-15l0 -138c0,-8 7,-15 15,-15l228 0c9,0 15,7 15,15zm-32 135l-71 -64 -17 13c-5,3 -12,3 -18,0l-17 -13 -71 64 194 0zm-55 -74l69 62 0 -111 -69 49zm-153 62l70 -62 -70 -49 0 111zm20 -120l91 65 92 -65 -183 0z"/></g></svg>
