<svg height="300px" width="300px" fill="#9295A6" xmlns="http://www.w3.org/2000/svg" viewBox="0 0 32 32" x="0px" y="0px"><g><path d="M23.14,11.9a.86.86,0,0,0,.05-.23V9.19a7.19,7.19,0,0,0-14.38,0v2.48a.86.86,0,0,0,0,.23h0a5,5,0,0,0-5,5V25a5,5,0,0,0,5,5H23.14a5,5,0,0,0,5-5V16.9A5,5,0,0,0,23.14,11.9Zm-12.33-.23V9.19a5.19,5.19,0,0,1,10.38,0v2.48a.86.86,0,0,0,0,.23H10.76A.86.86,0,0,0,10.81,11.67ZM26.14,25a3,3,0,0,1-3,3H8.86a3,3,0,0,1-3-3V16.9a3,3,0,0,1,3-3H23.14a3,3,0,0,1,3,3ZM16,16.86a3.48,3.48,0,1,0,3.48,3.47A3.48,3.48,0,0,0,16,16.86Zm0,4.95a1.48,1.48,0,1,1,1.48-1.48A1.48,1.48,0,0,1,16,21.81Z"/></g></svg>
