<?xml version="1.0" encoding="utf-8"?>
<!-- Generator: Adobe Illustrator 21.0.2, SVG Export Plug-In . SVG Version: 6.00 Build 0)  -->
<svg version="1.1" baseProfile="tiny" id="Layer_1" xmlns="http://www.w3.org/2000/svg" xmlns:xlink="http://www.w3.org/1999/xlink"
	 x="0px" y="0px" viewBox="0 0 100.5 71.5" xml:space="preserve">
<g>
	<path fill="#445BFC" d="M31.2,12h64.9c2.4,0,4.4-2.7,4.4-6s-2-6-4.4-6H31.2c-2.4,0-4.4,2.7-4.4,6S28.7,12,31.2,12z"/>
	<path fill="#445BFC" d="M94.5,30H6c-3.3,0-6,2.7-6,6s2.7,6,6,6h88.5c3.3,0,6-2.7,6-6S97.8,30,94.5,30z"/>
	<path fill="#445BFC" d="M96.1,59.5H31.2c-2.4,0-4.4,2.7-4.4,6c0,3.3,2,6,4.4,6h64.9c2.4,0,4.4-2.7,4.4-6C100.5,62.2,98.5,59.5,96.1,59.5z"/>
</g>
</svg>
